<svg width="28" height="28" viewBox="0 0 28 28" fill="none" xmlns="http://www.w3.org/2000/svg">
<path d="M27.59 25.55L14.89 0.550021C14.8061 0.386219 14.6786 0.248754 14.5216 0.152764C14.3645 0.0567734 14.184 0.00598145 14 0.00598145C13.816 0.00598145 13.6355 0.0567734 13.4784 0.152764C13.3214 0.248754 13.1939 0.386219 13.11 0.550021L0.409999 25.55C0.32223 25.702 0.276024 25.8745 0.276024 26.05C0.276024 26.2256 0.32223 26.398 0.409999 26.55C0.505999 26.6963 0.638719 26.8149 0.794898 26.8939C0.951077 26.9729 1.12525 27.0095 1.3 27H26.7C26.8709 26.9993 27.0387 26.9548 27.1875 26.8708C27.3363 26.7868 27.4611 26.666 27.55 26.52C27.6385 26.375 27.6886 26.2099 27.6956 26.0402C27.7026 25.8705 27.6663 25.7018 27.59 25.55ZM13 9.00002C13 8.7348 13.1054 8.48045 13.2929 8.29291C13.4804 8.10538 13.7348 8.00002 14 8.00002C14.2652 8.00002 14.5196 8.10538 14.7071 8.29291C14.8946 8.48045 15 8.7348 15 9.00002V17C15 17.2652 14.8946 17.5196 14.7071 17.7071C14.5196 17.8947 14.2652 18 14 18C13.7348 18 13.4804 17.8947 13.2929 17.7071C13.1054 17.5196 13 17.2652 13 17V9.00002ZM14 24C13.7033 24 13.4133 23.912 13.1666 23.7472C12.92 23.5824 12.7277 23.3481 12.6142 23.074C12.5006 22.8 12.4709 22.4984 12.5288 22.2074C12.5867 21.9164 12.7296 21.6491 12.9393 21.4394C13.1491 21.2296 13.4164 21.0867 13.7074 21.0288C13.9983 20.971 14.2999 21.0007 14.574 21.1142C14.8481 21.2277 15.0824 21.42 15.2472 21.6667C15.412 21.9133 15.5 22.2033 15.5 22.5C15.5 22.8978 15.342 23.2794 15.0607 23.5607C14.7794 23.842 14.3978 24 14 24Z" fill="black"/>
</svg>
