<svg xmlns="http://www.w3.org/2000/svg" id="burger-close" viewBox="0 0 20 19">
  <path d="M18.7099 16.7899C18.8037 16.8829 18.8781 16.9935 18.9288 17.1154C18.9796 17.2372 19.0057 17.3679 19.0057 17.4999C19.0057 17.632 18.9796 17.7627 18.9288 17.8845C18.8781 18.0064 18.8037 18.117 18.7099 18.2099C18.617 18.3037 18.5064 18.3781 18.3845 18.4288C18.2627 18.4796 18.132 18.5057 17.9999 18.5057C17.8679 18.5057 17.7372 18.4796 17.6154 18.4288C17.4935 18.3781 17.3829 18.3037 17.2899 18.2099L9.99994 10.9199L2.70994 18.2099C2.61698 18.3037 2.50638 18.3781 2.38452 18.4288C2.26266 18.4796 2.13195 18.5057 1.99994 18.5057C1.86793 18.5057 1.73722 18.4796 1.61536 18.4288C1.4935 18.3781 1.3829 18.3037 1.28994 18.2099C1.19621 18.117 1.12182 18.0064 1.07105 17.8845C1.02028 17.7627 0.994141 17.632 0.994141 17.4999C0.994141 17.3679 1.02028 17.2372 1.07105 17.1154C1.12182 16.9935 1.19621 16.8829 1.28994 16.7899L8.57994 9.49994L1.28994 2.20994C1.1967 2.1167 1.12274 2.00601 1.07228 1.88419C1.02182 1.76237 0.995847 1.6318 0.995847 1.49994C0.995847 1.36808 1.02182 1.23751 1.07228 1.11569C1.12274 0.99387 1.1967 0.88318 1.28994 0.789941C1.38318 0.696703 1.49387 0.622742 1.61569 0.572282C1.73751 0.521822 1.86808 0.49585 1.99994 0.49585C2.1318 0.49585 2.26237 0.521822 2.38419 0.572282C2.50601 0.622742 2.6167 0.696703 2.70994 0.789941L9.99994 8.07994L17.2899 0.789941C17.4782 0.601638 17.7336 0.49585 17.9999 0.49585C18.2662 0.49585 18.5216 0.601638 18.7099 0.789941C18.8982 0.978245 19.004 1.23364 19.004 1.49994C19.004 1.76624 18.8982 2.02164 18.7099 2.20994L11.4199 9.49994L18.7099 16.7899Z" fill="currentColor"/>
</svg>
