<svg xmlns="http://www.w3.org/2000/svg">
  <symbol id="footerLang-icon" viewBox="0 0 14 14">
    <path d="M13.813 6.733a6.422 6.422 0 00-.286-1.669 6.563 6.563 0 00-2.56-3.46.267.267 0 00-.06-.037A6.43 6.43 0 007.783.48 4.49 4.49 0 007.25.438 6.563 6.563 0 1013.813 7a2.533 2.533 0 000-.268zM3.969 11.57a5.625 5.625 0 01-2.096-6.23l.807.577L3.969 8.07v3.501zm6.675-5.976a.469.469 0 00-.324.037l-.937.469a.469.469 0 00-.235.567l.47 1.406a.469.469 0 00.294.296l1.144.38.366 2.001a5.597 5.597 0 01-4.172 1.875 5.48 5.48 0 01-2.142-.427l2.076-3.557a.469.469 0 00-.07-.568l-.469-.468a.469.469 0 00-.332-.136H4.728l-.342-.68a.127.127 0 00-.028-.047l-.455-.68h1.003a.469.469 0 00.469-.468v-.746l.802-.796a.469.469 0 00.056-.591l-.9-1.355-.117-.351a5.56 5.56 0 012.034-.38v.469a.469.469 0 00.938 0v-.385a5.466 5.466 0 011.959.722L9.71 3.72l-.066.225-.384.38a.469.469 0 00.152.768.469.469 0 00.514-.103l.262-.262.469.15 2.044.68c.055.193.097.39.126.59l-2.184-.553z" fill="currentColor"/>
  </symbol>
  <symbol id="footerTriangle-icon" viewBox="0 0 9 6">
    <path d="M.332 4.332l3.2-3.2a.8.8 0 011.136 0l3.2 3.2a.8.8 0 01.168.872.8.8 0 01-.736.496H.9a.8.8 0 01-.736-.496.8.8 0 01.168-.872z" fill="currentColor"/>
  </symbol>
  <symbol id="headerIcon-menu-triangle" viewBox="0 0 11 7">
    <path d="M10.21 2.21l-4 4a1 1 0 01-1.42 0l-4-4a1 1 0 01-.21-1.09A1 1 0 011.5.5h8a1 1 0 01.92.62 1 1 0 01-.21 1.09z" fill="currentColor"/>
  </symbol>
  <symbol id="headerIcon-extend-menu" viewBox="0 0 7 12">
    <path d="M1.5 11.25a.75.75 0 01-.533-1.283L4.942 6 .967 2.032A.753.753 0 112.032.967l4.5 4.5a.75.75 0 010 1.065l-4.5 4.5a.75.75 0 01-.532.218z" fill="currentColor"/>
  </symbol>
  <symbol id="headerIcon-extend-next" viewBox="0 0 10 9">
    <path d="M8.891 4.766L5.516 8.141a.375.375 0 01-.614-.122.375.375 0 01.082-.41L7.72 4.875H.375a.375.375 0 010-.75h7.346L4.984 1.391A.377.377 0 015.516.86l3.375 3.375a.375.375 0 010 .532z" fill="currentColor"/>
  </symbol>
  <symbol id="headerLangWorld-icon" viewBox="0 0 17 16">
    <path d="M8.246.125a7.875 7.875 0 100 15.75 7.875 7.875 0 000-15.75zm-2.863 1.76a8.938 8.938 0 00-1.35 3.303H2.109a6.817 6.817 0 013.274-3.302zM1.496 8c0-.57.071-1.136.214-1.688h2.137a14.113 14.113 0 000 3.375H1.71A6.705 6.705 0 011.496 8zm.613 2.813h1.924a8.938 8.938 0 001.35 3.301 6.818 6.818 0 01-3.274-3.302zm5.575 3.836c-1.092-.383-2.025-1.868-2.487-3.836h2.487v3.836zm0-4.961H4.989a12.111 12.111 0 010-3.376h2.695v3.375zm0-4.5H5.197c.462-1.97 1.395-3.454 2.487-3.837v3.837zm6.699 0h-1.924a8.937 8.937 0 00-1.35-3.302 6.817 6.817 0 013.274 3.301zM8.809 1.35c1.09.383 2.025 1.868 2.492 3.837H8.808V1.35zm0 4.962h2.694c.158 1.119.158 2.255 0 3.375H8.809V6.312zm0 8.336v-3.836H11.3c-.467 1.968-1.401 3.453-2.492 3.836zm2.3-.535a8.937 8.937 0 001.35-3.302h1.924a6.818 6.818 0 01-3.274 3.302zm1.536-4.427c.068-.56.102-1.123.101-1.687a13.656 13.656 0 00-.101-1.688h2.137a6.75 6.75 0 010 3.375h-2.137z" fill="currentColor"/>
  </symbol>
</svg>
